0
SECTION
2
HEADER
9
$INSUNITS
70
4
9
$ACADVER
1
AC1014
9
$HANDSEED
5
FFFF
0
ENDSEC
0
SECTION
2
TABLES
0
TABLE
2
VPORT
5
8
100
AcDbSymbolTable
0
ENDTAB
0
TABLE
2
LTYPE
5
5
100
AcDbSymbolTable
0
LTYPE
5
14
100
AcDbSymbolTableRecord
100
AcDbLinetypeTableRecord
2
BYBLOCK
70
0
0
LTYPE
5
15
100
AcDbSymbolTableRecord
100
AcDbLinetypeTableRecord
2
BYLAYER
70
0
0
ENDTAB
0
TABLE
2
LAYER
5
2
100
AcDbSymbolTable
70
2
0
LAYER
5
50
100
AcDbSymbolTableRecord
100
AcDbLayerTableRecord
2
0
70
0
6
CONTINUOUS
0
ENDTAB
0
TABLE
2
STYLE
5
3
100
AcDbSymbolTable
70
1
0
STYLE
5
11
100
AcDbSymbolTableRecord
100
AcDbTextStyleTableRecord
2
STANDARD
70
0
0
ENDTAB
0
TABLE
2
VIEW
5
6
100
AcDbSymbolTable
70
0
0
ENDTAB
0
TABLE
2
UCS
5
7
100
AcDbSymbolTable
70
0
0
ENDTAB
0
TABLE
2
APPID
5
9
100
AcDbSymbolTable
70
2
0
APPID
5
12
100
AcDbSymbolTableRecord
100
AcDbRegAppTableRecord
2
ACAD
70
0
0
ENDTAB
0
TABLE
2
DIMSTYLE
5
A
100
AcDbSymbolTable
70
1
0
ENDTAB
0
TABLE
2
BLOCK_RECORD
5
1
100
AcDbSymbolTable
70
1
0
BLOCK_RECORD
5
1F
100
AcDbSymbolTableRecord
100
AcDbBlockTableRecord
2
*MODEL_SPACE
0
BLOCK_RECORD
5
1B
100
AcDbSymbolTableRecord
100
AcDbBlockTableRecord
2
*PAPER_SPACE
0
ENDTAB
0
ENDSEC
0
SECTION
2
BLOCKS
0
BLOCK
5
20
100
AcDbEntity
100
AcDbBlockBegin
2
*MODEL_SPACE
0
ENDBLK
5
21
100
AcDbEntity
100
AcDbBlockEnd
0
BLOCK
5
1C
100
AcDbEntity
100
AcDbBlockBegin
2
*PAPER_SPACE
0
ENDBLK
5
1D
100
AcDbEntity
100
AcDbBlockEnd
0
ENDSEC
0
SECTION
2
ENTITIES
0
LWPOLYLINE
5
100
100
AcDbEntity
8
0
100
AcDbPolyline
90
6
70
1
43
0.0
10
44
20
0
10
0
20
0
10
1.1102230246251565e-15
20
11.999999999999877
10
5.9999999999999343
20
18
10
50
20
18
10
50
20
6.0000000000000009
0
LWPOLYLINE
5
101
100
AcDbEntity
8
0
100
AcDbPolyline
90
6
70
1
43
0.0
10
102
20
6.0000000000000009
10
96.000000000000014
20
0
10
52
20
0
10
52
20
11.999999999999877
10
57.999999999999936
20
18
10
102
20
18
0
LWPOLYLINE
5
102
100
AcDbEntity
8
0
100
AcDbPolyline
90
6
70
1
43
0.0
10
154
20
6.0000000000000009
10
148
20
0
10
104
20
0
10
104
20
11.999999999999877
10
109.99999999999993
20
18
10
154
20
18
0
LWPOLYLINE
5
103
100
AcDbEntity
8
0
100
AcDbPolyline
90
6
70
1
43
0.0
10
206
20
6.0000000000000009
10
200
20
0
10
156
20
0
10
156
20
11.999999999999877
10
161.99999999999994
20
18
10
206
20
18
0
LWPOLYLINE
5
104
100
AcDbEntity
8
0
100
AcDbPolyline
90
6
70
1
43
0.0
10
258
20
6.0000000000000009
10
252.00000000000003
20
0
10
208
20
0
10
208
20
11.999999999999877
10
213.99999999999994
20
18
10
258
20
18
0
LWPOLYLINE
5
105
100
AcDbEntity
8
0
100
AcDbPolyline
90
6
70
1
43
0.0
10
50
20
27
10
44
20
21
10
0
20
21
10
1.1102230246251565e-15
20
32.999999999999879
10
5.9999999999999343
20
39
10
50
20
39
0
LWPOLYLINE
5
106
100
AcDbEntity
8
0
100
AcDbPolyline
90
6
70
1
43
0.0
10
102
20
27
10
96.000000000000014
20
21
10
52
20
21
10
52
20
32.999999999999879
10
57.999999999999936
20
39
10
102
20
39
0
LWPOLYLINE
5
107
100
AcDbEntity
8
0
100
AcDbPolyline
90
6
70
1
43
0.0
10
154
20
27
10
148
20
21
10
104
20
21
10
104
20
32.999999999999879
10
109.99999999999993
20
39
10
154
20
39
0
LWPOLYLINE
5
108
100
AcDbEntity
8
0
100
AcDbPolyline
90
6
70
1
43
0.0
10
206
20
27
10
200
20
21
10
156
20
21
10
156
20
32.999999999999879
10
161.99999999999994
20
39
10
206
20
39
0
LWPOLYLINE
5
109
100
AcDbEntity
8
0
100
AcDbPolyline
90
6
70
1
43
0.0
10
258
20
27
10
252.00000000000003
20
21
10
208
20
21
10
208
20
32.999999999999879
10
213.99999999999994
20
39
10
258
20
39
0
LWPOLYLINE
5
110
100
AcDbEntity
8
0
100
AcDbPolyline
90
6
70
1
43
0.0
10
50
20
48.000000000000007
10
44
20
42
10
0
20
42
10
1.1102230246251565e-15
20
53.999999999999879
10
5.9999999999999343
20
60
10
50
20
60
0
LWPOLYLINE
5
111
100
AcDbEntity
8
0
100
AcDbPolyline
90
6
70
1
43
0.0
10
102
20
48.000000000000007
10
96.000000000000014
20
42
10
52
20
42
10
52
20
53.999999999999879
10
57.999999999999936
20
60
10
102
20
60
0
LWPOLYLINE
5
112
100
AcDbEntity
8
0
100
AcDbPolyline
90
6
70
1
43
0.0
10
154
20
48.000000000000007
10
148
20
42
10
104
20
42
10
104
20
53.999999999999879
10
109.99999999999993
20
60
10
154
20
60
0
LWPOLYLINE
5
113
100
AcDbEntity
8
0
100
AcDbPolyline
90
6
70
1
43
0.0
10
206
20
48.000000000000007
10
200
20
42
10
156
20
42
10
156
20
53.999999999999879
10
161.99999999999994
20
60
10
206
20
60
0
LWPOLYLINE
5
114
100
AcDbEntity
8
0
100
AcDbPolyline
90
6
70
1
43
0.0
10
258
20
48.000000000000007
10
252.00000000000003
20
42
10
208
20
42
10
208
20
53.999999999999879
10
213.99999999999994
20
60
10
258
20
60
0
LWPOLYLINE
5
115
100
AcDbEntity
8
0
100
AcDbPolyline
90
6
70
1
43
0.0
10
50
20
69
10
44
20
63.000000000000007
10
0
20
63.000000000000007
10
1.1102230246251565e-15
20
74.999999999999886
10
5.9999999999999343
20
81.000000000000014
10
50
20
81.000000000000014
0
LWPOLYLINE
5
116
100
AcDbEntity
8
0
100
AcDbPolyline
90
6
70
1
43
0.0
10
102
20
69
10
96.000000000000014
20
63.000000000000007
10
52
20
63.000000000000007
10
52
20
74.999999999999886
10
57.999999999999936
20
81.000000000000014
10
102
20
81.000000000000014
0
LWPOLYLINE
5
117
100
AcDbEntity
8
0
100
AcDbPolyline
90
6
70
1
43
0.0
10
154
20
69
10
148
20
63.000000000000007
10
104
20
63.000000000000007
10
104
20
74.999999999999886
10
109.99999999999993
20
81.000000000000014
10
154
20
81.000000000000014
0
LWPOLYLINE
5
118
100
AcDbEntity
8
0
100
AcDbPolyline
90
6
70
1
43
0.0
10
206
20
69
10
200
20
63.000000000000007
10
156
20
63.000000000000007
10
156
20
74.999999999999886
10
161.99999999999994
20
81.000000000000014
10
206
20
81.000000000000014
0
LWPOLYLINE
5
119
100
AcDbEntity
8
0
100
AcDbPolyline
90
6
70
1
43
0.0
10
258
20
69
10
252.00000000000003
20
63.000000000000007
10
208
20
63.000000000000007
10
208
20
74.999999999999886
10
213.99999999999994
20
81.000000000000014
10
258
20
81.000000000000014
0
ENDSEC
0
SECTION
2
OBJECTS
0
DICTIONARY
5
C
100
AcDbDictionary
3
ACAD_GROUP
350
D
3
ACAD_MLINESTYLE
350
17
0
DICTIONARY
5
D
100
AcDbDictionary
0
DICTIONARY
5
1A
330
C
100
AcDbDictionary
0
DICTIONARY
5
17
100
AcDbDictionary
0
ENDSEC
0
EOF
